<?xml version="1.0" encoding="UTF-8" standalone="no"?>
<!-- Created with Inkscape (http://www.inkscape.org/) -->

<svg
   width="50"
   height="50"
   viewBox="0 0 13.229166 13.229167"
   version="1.1"
   id="svg1"
   inkscape:version="1.3.2 (091e20e, 2023-11-25, custom)"
   sodipodi:docname="dot.svg"
   xmlns:inkscape="http://www.inkscape.org/namespaces/inkscape"
   xmlns:sodipodi="http://sodipodi.sourceforge.net/DTD/sodipodi-0.dtd"
   xmlns="http://www.w3.org/2000/svg"
   xmlns:svg="http://www.w3.org/2000/svg">
  <sodipodi:namedview
     id="namedview1"
     pagecolor="#ffffff"
     bordercolor="#000000"
     borderopacity="0.25"
     inkscape:showpageshadow="2"
     inkscape:pageopacity="0.0"
     inkscape:pagecheckerboard="0"
     inkscape:deskcolor="#d1d1d1"
     inkscape:document-units="mm"
     inkscape:zoom="16.206397"
     inkscape:cx="22.583674"
     inkscape:cy="28.106185"
     inkscape:window-width="2560"
     inkscape:window-height="1351"
     inkscape:window-x="-9"
     inkscape:window-y="-9"
     inkscape:window-maximized="1"
     inkscape:current-layer="layer1" />
  <defs
     id="defs1" />
  <g
     inkscape:label="Layer 1"
     inkscape:groupmode="layer"
     id="layer1">
    <path
       id="path1"
       style="fill:#ffffff;stroke-width:0.269091;stroke-dasharray:none;fill-opacity:1"
       d="M 6.6145833 0 A 6.6145835 6.6145835 0 0 0 0 6.6145833 A 6.6145835 6.6145835 0 0 0 6.6145833 13.229167 A 6.6145835 6.6145835 0 0 0 13.229167 6.6145833 A 6.6145835 6.6145835 0 0 0 6.6145833 0 z M 6.6145833 0.40824382 A 6.2064371 6.2064371 0 0 1 12.820923 6.6145833 A 6.2064371 6.2064371 0 0 1 6.6145833 12.820923 A 6.2064371 6.2064371 0 0 1 0.40824382 6.6145833 A 6.2064371 6.2064371 0 0 1 6.6145833 0.40824382 z " />
    <circle
       style="fill:#ffffff;stroke-width:0.302127;stroke-dasharray:none;fill-opacity:1"
       id="path2"
       cx="6.6145835"
       cy="6.6145835"
       r="5.3140669" />
  </g>
</svg>
